<?xml version="1.0" standalone="no"?>
<!DOCTYPE svg PUBLIC "-//W3C//DTD SVG 20010904//EN"
 "http://www.w3.org/TR/2001/REC-SVG-20010904/DTD/svg10.dtd">
<svg version="1.0" xmlns="http://www.w3.org/2000/svg"
 width="861.000000pt" height="861.000000pt" viewBox="0 0 861.000000 861.000000"
 preserveAspectRatio="xMidYMid meet">

<g transform="translate(0.000000,861.000000) scale(0.100000,-0.100000)"
fill="#000000" stroke="none">
<path d="M0 4305 l0 -4305 4305 0 4305 0 0 4305 0 4305 -4305 0 -4305 0 0
-4305z m8500 3305 l0 -900 -75 0 -75 0 0 825 0 825 -4050 0 -4050 0 0 -825 0
-825 -75 0 -75 0 0 900 0 900 4200 0 4200 0 0 -900z m-300 -3300 l0 -3900
-3900 0 -3900 0 0 3900 0 3900 3900 0 3900 0 0 -3900z m-7950 -3225 l0 -825
4050 0 4050 0 0 825 0 825 75 0 75 0 0 -900 0 -900 -4200 0 -4200 0 0 900 0
900 75 0 75 0 0 -825z"/>
<path d="M550 4310 l0 -3750 3750 0 3750 0 0 3750 0 3750 -3750 0 -3750 0 0
-3750z m5145 2281 c46 -21 79 -54 94 -94 6 -16 11 -93 11 -173 l0 -144 -1500
0 -1500 0 0 145 c0 102 4 156 14 179 15 36 72 87 108 98 13 3 633 6 1378 7
1297 1 1357 0 1395 -18z m105 -1556 c0 -1022 0 -1035 -20 -1055 -20 -20 -33
-20 -1480 -20 -1447 0 -1460 0 -1480 20 -20 20 -20 33 -20 1055 l0 1035 1500
0 1500 0 0 -1035z m-1205 -1949 c80 -26 80 -26 51 -85 -15 -28 -27 -51 -29
-51 -1 0 -26 9 -56 21 -79 30 -165 35 -235 15 -78 -23 -153 -96 -186 -181 -28
-75 -38 -227 -20 -317 23 -118 90 -209 176 -239 52 -19 204 -17 277 3 l57 16
0 -58 0 -58 -69 -16 c-97 -22 -234 -21 -310 3 -155 48 -244 172 -272 377 -24
185 18 353 117 463 90 101 177 133 339 127 63 -2 132 -11 160 -20z m-2183
-232 l3 -236 41 57 c23 31 106 136 185 235 l144 179 74 1 73 0 -44 -52 c-41
-50 -270 -328 -291 -355 -6 -9 38 -84 150 -255 88 -134 167 -255 177 -270 l18
-28 -71 0 -72 0 -102 158 c-57 86 -123 187 -146 225 -24 37 -46 67 -49 67 -3
0 -25 -16 -48 -36 l-44 -35 0 -190 0 -189 -60 0 -60 0 0 480 0 480 60 0 60 0
2 -236z m820 -126 l3 -363 25 -43 c36 -64 80 -87 165 -87 89 0 133 25 167 93
23 46 23 54 26 405 l3 357 65 0 65 0 -3 -367 c-4 -426 -5 -432 -92 -518 -68
-68 -133 -89 -256 -83 -116 5 -189 40 -237 111 -55 82 -57 93 -60 490 l-4 367
65 0 65 0 3 -362z m2196 320 l-3 -43 -70 -3 c-38 -1 -80 -5 -92 -7 l-23 -5 0
-379 c0 -430 -10 -391 95 -391 87 0 95 -4 95 -51 l0 -39 -256 0 -255 0 3 42
c3 47 -10 42 133 50 l50 3 3 382 2 383 -22 5 c-13 2 -54 6 -93 7 l-70 3 -3 43
-3 42 256 0 256 0 -3 -42z m651 31 c224 -51 349 -272 313 -549 -21 -157 -76
-258 -175 -323 -91 -60 -134 -70 -319 -75 l-168 -4 0 481 0 481 153 0 c83 0
172 -5 196 -11z"/>
<path d="M3678 5576 c-16 -8 -24 -22 -26 -44 -3 -31 8 -45 157 -196 89 -89
161 -166 161 -172 1 -5 -74 -81 -165 -169 -174 -169 -188 -191 -147 -228 40
-36 59 -24 236 151 94 93 189 185 211 205 l40 37 -121 122 c-66 68 -157 162
-203 210 -46 47 -91 88 -101 91 -10 3 -29 -1 -42 -7z"/>
<path d="M4133 4834 c-15 -24 -15 -29 -2 -53 l15 -26 424 0 424 0 15 26 c13
24 13 29 -2 53 l-17 26 -420 0 -420 0 -17 -26z"/>
<path d="M5855 2609 l0 -371 90 4 c112 5 180 33 233 93 56 64 74 121 80 257 6
156 -17 238 -86 307 -59 59 -124 81 -236 81 l-81 0 0 -371z"/>
</g>
</svg>
